<svg xmlns="http://www.w3.org/2000/svg" xmlns:xlink="http://www.w3.org/1999/xlink" viewBox="0,0,256,256" width="48px" height="48px" fill-rule="nonzero" fill="#dddddd">
    <g transform="">
        <g fill-opacity="0" fill="#dddddd" fill-rule="nonzero" stroke="none" stroke-width="1" stroke-linecap="butt" stroke-linejoin="miter" stroke-miterlimit="10" stroke-dasharray="" stroke-dashoffset="0" font-family="none" font-weight="none" font-size="none" text-anchor="none" style="mix-blend-mode: normal">
            <path d="M0,256v-256h256v256z" id="bgRectangle"></path>
        </g>
        <g fill="#212121" fill-rule="nonzero" stroke="none" stroke-width="1" stroke-linecap="butt" stroke-linejoin="miter" stroke-miterlimit="10" stroke-dasharray="" stroke-dashoffset="0" font-family="none" font-weight="none" font-size="none" text-anchor="none" style="mix-blend-mode: normal">
            <g transform="scale(10.66667,10.66667)">
                <path d="M14.812,16.215l-7.027,-7.027c-0.384,-0.384 -0.384,-1.008 0,-1.392l0.011,-0.011c0.384,-0.384 1.008,-0.384 1.392,0l7.027,7.027c0.384,0.384 0.384,1.008 0,1.392l-0.011,0.011c-0.384,0.384 -1.008,0.384 -1.392,0z"></path>
                <path d="M7.785,14.812l7.027,-7.027c0.384,-0.384 1.008,-0.384 1.392,0l0.011,0.011c0.384,0.384 0.384,1.008 0,1.392l-7.027,7.027c-0.384,0.384 -1.008,0.384 -1.392,0l-0.011,-0.011c-0.384,-0.384 -0.384,-1.008 0,-1.392z"></path>
            </g>
        </g>
    </g>
</svg>
